<?xml version="1.0" standalone="no"?>
<!DOCTYPE svg PUBLIC "-//W3C//DTD SVG 20010904//EN"
 "http://www.w3.org/TR/2001/REC-SVG-20010904/DTD/svg10.dtd">
<svg version="1.0" xmlns="http://www.w3.org/2000/svg"
 width="2000.000000pt" height="2000.000000pt" viewBox="0 0 2000.000000 2000.000000"
 preserveAspectRatio="xMidYMid meet">
<metadata>
Created by potrace 1.14, written by Peter Selinger 2001-2017
</metadata>
<g transform="translate(0.000000,2000.000000) scale(0.100000,-0.100000)"
fill="#000000" stroke="none">
<path d="M10387 16184 c-1 -1 -27 -4 -57 -8 -126 -13 -225 -43 -355 -107 -299
-147 -511 -420 -582 -749 -17 -80 -18 -168 -18 -1530 0 -795 3 -1465 7 -1490
19 -118 44 -200 91 -303 89 -192 254 -373 438 -480 25 -15 48 -27 51 -27 3 0
7 36 9 79 3 60 9 84 23 100 19 21 19 22 -2 41 -12 11 -24 20 -28 20 -9 0 -110
86 -148 125 -120 126 -208 312 -232 490 -12 93 -7 2824 5 2895 63 351 309 621
651 711 109 29 310 31 410 5 345 -90 591 -346 664 -691 13 -60 15 -272 13
-1510 l-2 -1440 -22 -76 c-43 -153 -116 -282 -221 -391 -30 -32 -70 -68 -88
-80 -19 -13 -34 -25 -34 -28 0 -3 67 -5 149 -5 105 0 153 4 164 13 25 21 112
152 146 220 60 118 96 237 109 357 8 80 8 2833 -1 2910 -52 459 -407 837 -872
929 -66 13 -259 28 -268 20z"/>
<path d="M9718 13018 c-3 -7 -4 -56 -3 -108 1 -86 3 -95 20 -98 31 -5 164 -51
199 -69 169 -87 311 -230 395 -398 71 -144 92 -248 95 -480 l1 -129 100 -1
100 0 -1 190 c-2 168 -5 201 -27 286 -84 321 -283 571 -567 714 -78 39 -186
79 -246 89 -13 3 -33 7 -43 11 -11 3 -21 0 -23 -7z"/>
<path d="M9125 12955 c-136 -59 -234 -126 -335 -226 -158 -157 -270 -365 -306
-569 -3 -14 -8 -36 -11 -50 -8 -36 -10 -2839 -2 -2913 11 -97 19 -134 44 -211
23 -69 63 -166 69 -166 1 0 3 442 3 983 0 1077 -3 1017 58 1065 24 19 25 24
25 139 l0 119 -35 40 c-46 51 -102 165 -111 229 -27 181 8 328 106 445 36 44
37 48 43 145 6 114 9 133 38 230 63 212 232 413 435 517 l83 43 0 107 c-1 75
-4 108 -12 108 -7 0 -48 -16 -92 -35z"/>
<path d="M8905 11854 c-109 -35 -190 -116 -228 -226 -24 -74 -17 -209 16 -281
107 -235 443 -279 617 -81 43 49 68 108 78 180 23 172 -53 322 -198 391 -70
34 -206 42 -285 17z"/>
<path d="M249 11582 c-2 -11 -3 -8 80 -247 107 -310 181 -516 302 -840 28 -77
58 -158 66 -180 7 -22 18 -49 23 -60 5 -11 32 -81 61 -155 58 -154 214 -550
234 -595 7 -16 56 -136 110 -265 112 -272 252 -594 374 -865 l87 -190 297 -3
298 -2 45 97 c82 174 215 477 368 838 20 46 32 74 127 310 49 121 94 229 99
240 5 11 43 110 85 220 42 110 98 256 125 325 90 233 364 978 375 1020 2 8 27
80 55 160 29 80 56 157 60 171 l8 26 -331 -1 -331 -1 -113 -335 c-222 -660
-541 -1557 -628 -1765 -7 -16 -57 -142 -111 -280 -54 -137 -103 -258 -109
-267 -10 -15 -26 18 -103 205 -192 471 -401 1048 -727 2007 -47 140 -90 264
-95 275 -5 11 -18 50 -30 87 -13 41 -28 69 -38 72 -26 8 -662 6 -663 -2z"/>
<path d="M10115 9887 l0 -1702 310 0 310 0 0 732 c0 402 4 735 8 740 5 4 304
9 665 9 362 1 664 2 673 3 13 1 15 33 15 261 l0 260 -681 2 -680 3 0 428 c0
236 3 431 8 434 4 2 349 4 767 3 l760 0 0 264 0 264 -1077 0 -1078 1 0 -1702z"/>
<path d="M4917 10815 c-1 -2 -29 -5 -62 -8 -161 -16 -358 -88 -503 -183 -290
-191 -469 -496 -537 -914 -11 -67 -14 -386 -4 -470 65 -551 355 -919 839
-1061 36 -11 81 -22 100 -25 19 -3 37 -7 40 -9 5 -3 39 -8 155 -20 55 -6 311
-7 360 -1 22 3 65 8 95 11 30 3 84 10 120 16 36 6 74 13 85 14 43 6 194 47
268 72 l79 27 -7 51 c-14 106 -67 429 -71 434 -1 1 -31 -6 -66 -18 -118 -38
-294 -77 -403 -87 -101 -10 -291 -10 -375 0 -178 20 -318 83 -424 190 -102
102 -155 210 -180 369 l-13 77 51 1 c28 0 409 0 847 1 l797 0 5 31 c7 43 1
420 -8 477 -59 408 -201 672 -455 847 -128 87 -296 146 -484 170 -42 5 -244
11 -249 8z m218 -509 c59 -13 155 -65 205 -112 111 -104 172 -249 185 -441 l2
-33 -554 0 -554 0 6 38 c24 138 83 282 149 361 81 96 201 171 301 188 17 3 31
6 33 8 5 5 196 -3 227 -9z"/>
<path d="M15768 10815 c-2 -1 -34 -5 -73 -8 -174 -15 -366 -86 -529 -195 -143
-95 -297 -275 -378 -442 -73 -149 -99 -230 -133 -415 -12 -64 -18 -175 -18
-305 0 -153 7 -233 28 -340 23 -118 23 -120 46 -189 94 -285 277 -507 531
-644 110 -60 272 -115 383 -131 22 -4 54 -9 70 -11 126 -21 408 -21 545 0 14
2 45 7 70 10 116 16 261 49 362 82 l110 36 -6 54 c-6 60 -40 271 -58 371 -9
49 -15 62 -27 59 -257 -75 -333 -92 -473 -105 -98 -9 -291 -8 -358 2 -320 47
-513 207 -585 484 -12 46 -22 99 -21 119 l1 35 844 2 c836 1 844 1 847 21 5
26 5 350 0 395 -12 119 -20 174 -37 250 -11 47 -22 95 -25 108 -9 45 -53 152
-91 227 -151 291 -439 483 -783 520 -66 8 -237 14 -242 10z m217 -513 c162
-53 278 -170 334 -339 22 -67 28 -95 36 -185 l5 -58 -555 0 -554 0 5 33 c14
79 47 184 79 252 72 152 226 275 378 304 53 10 233 5 272 -7z"/>
<path d="M18527 10814 c-1 -1 -22 -5 -47 -9 -82 -11 -96 -15 -185 -40 -242
-70 -445 -214 -597 -421 -88 -121 -178 -319 -213 -471 -33 -140 -40 -207 -40
-403 0 -161 6 -261 20 -332 3 -16 7 -38 9 -50 10 -56 40 -160 69 -233 124
-323 372 -556 707 -665 269 -87 629 -95 990 -24 169 33 350 91 350 111 0 4 -7
49 -15 98 -9 50 -18 108 -21 130 -32 212 -39 240 -59 238 -17 -1 -122 -30
-230 -62 -16 -5 -52 -12 -79 -16 -27 -3 -53 -8 -57 -10 -27 -17 -343 -25 -459
-11 -254 29 -446 153 -538 346 -38 81 -65 172 -75 253 -4 34 -3 37 22 38 14 0
396 0 848 1 l821 0 5 37 c5 44 0 406 -6 441 -3 14 -8 50 -12 80 -8 60 -8 63
-25 135 -66 288 -200 502 -410 655 -93 68 -287 148 -370 152 -3 0 -15 4 -27 9
-31 11 -148 22 -271 23 -57 1 -104 1 -105 0z m237 -509 c91 -19 161 -58 234
-131 45 -45 72 -84 96 -136 41 -89 62 -170 67 -264 l3 -49 -552 -3 c-521 -2
-552 -1 -552 15 0 73 87 304 136 362 96 113 188 176 302 205 64 17 188 17 266
1z"/>
<path d="M7587 10804 c-1 -1 -42 -5 -92 -8 -106 -8 -220 -25 -315 -46 -25 -6
-54 -12 -65 -14 -40 -8 -212 -55 -285 -79 l-75 -24 -3 -1227 -2 -1226 294 0
c226 0 295 3 298 13 2 6 4 470 3 1030 l0 1017 35 10 c225 58 453 58 704 0 71
-16 130 -29 131 -27 2 2 27 128 40 197 2 14 11 54 19 90 41 177 44 199 32 208
-20 17 -261 66 -381 78 -58 6 -333 12 -338 8z"/>
<path d="M13657 10804 c-1 -1 -51 -5 -110 -8 -60 -4 -114 -9 -120 -11 -7 -3
-30 -7 -52 -9 -78 -10 -101 -15 -210 -40 -110 -25 -297 -78 -346 -97 l-25 -10
0 -1222 1 -1222 297 -3 298 -2 2 1032 3 1032 85 18 c47 9 110 21 140 24 62 9
273 8 325 0 19 -4 52 -9 73 -12 20 -3 81 -16 135 -30 54 -13 100 -24 102 -24
3 0 13 37 21 75 1 6 20 102 43 213 23 112 40 206 37 209 -16 16 -216 57 -386
79 -49 6 -307 13 -313 8z"/>
<path d="M8765 10752 l-31 -3 1 -1282 0 -1282 298 -3 297 -2 0 1285 0 1284
-267 3 c-148 2 -282 2 -298 0z"/>
<path d="M9910 9753 c-124 -73 -256 -195 -342 -318 -100 -141 -91 -72 -92
-725 l-1 -575 -23 -32 c-13 -18 -36 -40 -53 -50 l-29 -17 1 -976 c0 -573 5
-1003 10 -1043 49 -338 268 -649 570 -807 79 -41 224 -93 294 -104 l40 -7 0
105 0 105 -60 16 c-329 91 -580 369 -636 705 -8 45 -11 502 -11 1470 0 1541
-2 1476 60 1632 62 154 165 290 290 380 l42 31 0 119 c0 65 -3 118 -7 118 -5
0 -28 -12 -53 -27z"/>
<path d="M11059 9442 c141 -139 228 -301 259 -485 9 -52 9 -2866 1 -2922 -13
-81 -33 -142 -74 -231 -88 -188 -224 -328 -412 -423 l-63 -31 0 -106 0 -106
29 5 c54 11 195 84 282 146 85 61 159 132 230 221 41 51 123 193 134 230 4 14
11 30 15 35 13 17 49 142 62 213 13 80 19 2824 6 2950 -16 152 -70 306 -154
442 -89 144 -76 137 -247 138 l-147 1 79 -77z"/>
<path d="M9915 8519 c-22 -10 -76 -30 -120 -44 l-81 -26 1 -102 0 -102 30 2
c17 1 74 15 128 33 l97 31 0 114 c0 63 -3 115 -7 114 -5 0 -26 -9 -48 -20z"/>
<path d="M9715 6638 l1 -102 106 -36 c290 -100 501 -328 577 -625 21 -82 23
-172 23 -1107 0 -878 1 -957 17 -960 9 -2 54 -4 101 -3 l85 1 0 1005 c0 946
-1 1009 -19 1084 -57 244 -173 439 -359 602 -125 111 -340 215 -487 237 l-46
7 1 -103z"/>
<path d="M9175 6691 c-235 -84 -454 -273 -578 -501 -33 -59 -84 -182 -92 -220
-3 -15 -17 -73 -31 -135 -4 -16 -7 -480 -8 -1030 l-2 -1000 103 0 103 0 1 970
c1 534 3 979 4 990 37 301 214 554 483 690 l72 36 0 110 c0 60 -1 109 -2 108
-2 0 -25 -8 -53 -18z"/>
</g>
</svg>
